<svg width="27" height="35" viewBox="0 0 27 35" fill="none" xmlns="http://www.w3.org/2000/svg">
<path fill-rule="evenodd" clip-rule="evenodd" d="M17.5329 6.60001V11.6987H9.6265V6.60001C9.6265 4.47359 11.3982 2.70001 13.5797 2.70001C15.7613 2.70001 17.5329 4.47359 17.5329 6.60001ZM7.0265 6.60001C7.0265 3.01016 9.98987 0.100006 13.5797 0.100006C17.1696 0.100006 20.1329 3.01016 20.1329 6.60001V11.6987V12.1142H23.1585C24.5464 12.1142 25.6896 13.2043 25.7556 14.5906L26.5565 31.4094C26.6271 32.8922 25.4439 34.1331 23.9594 34.1331H3.20004C1.71554 34.1331 0.532369 32.8922 0.60298 31.4094L1.40388 14.5906C1.46989 13.2043 2.61307 12.1142 4.00093 12.1142H7.0265V11.6987V6.60001ZM4.00093 14.7142H23.1585L23.9594 31.5331H3.20004L4.00093 14.7142Z" fill="white"/>
</svg>
