<svg width="126" height="38" viewBox="0 0 126 38" fill="none" xmlns="http://www.w3.org/2000/svg">
<path d="M22.5779 27.07C22.5779 30.45 21.5836 33.05 19.5949 34.87C17.6062 36.69 14.7528 37.6 11.0348 37.6C8.44083 37.6 6.19273 37.1233 4.29049 36.17C2.38825 35.2167 1.17773 33.6133 1.17773 33.6133C0.6157 32.8333 0.658934 31.6633 1.30743 30.97L3.3826 28.63C4.03109 27.9367 4.93898 28.0233 5.41454 28.8033C5.41454 28.8033 5.84687 29.54 7.10062 30.32C8.31114 31.1 9.65135 31.49 11.078 31.49C12.5479 31.49 13.6288 31.1433 14.3637 30.4933C15.0987 29.8 15.4878 28.8467 15.4878 27.5467C15.4878 26.42 14.969 25.38 13.9746 24.47C12.9803 23.56 11.2077 22.39 8.65699 21.0033C5.8901 19.4433 3.9014 17.8833 2.77734 16.28C1.65329 14.6767 1.04803 12.8133 1.04803 10.6467C1.04803 7.61333 2.04238 5.18666 4.03109 3.40999C6.0198 1.63333 8.70023 0.723328 12.1156 0.723328C14.1908 0.723328 16.0066 1.11333 17.5629 1.89333C19.1193 2.67333 20.3731 4.05999 20.3731 4.05999C20.9783 4.75333 20.9783 5.92333 20.3298 6.61666L18.4276 8.69666C17.7791 9.39 16.828 9.34666 16.266 8.56666C16.266 8.56666 16.093 8.30666 15.0987 7.74333C14.1043 7.13666 13.0667 6.83333 12.0292 6.83333C10.8186 6.83333 9.82428 7.13666 9.13256 7.78666C8.3976 8.43666 8.05174 9.21666 8.05174 10.1267C8.05174 11.99 11.6833 14.6333 11.6833 14.6333C12.4615 15.1967 13.3261 15.76 13.6288 15.9333C13.9314 16.1067 15.1419 16.8433 15.9633 17.32C15.9633 17.32 19.5517 19.66 20.7622 21.2633C21.9295 22.8667 22.5779 24.8167 22.5779 27.07Z" fill="black"/>
<path d="M33.3428 35.13C33.3428 36.0833 32.5646 36.8633 31.6135 36.8633H28.1549C27.2038 36.8633 26.4256 36.0833 26.4256 35.13V3.14999C26.4256 2.19666 27.2038 1.41666 28.1549 1.41666H31.6135C32.5646 1.41666 33.3428 2.19666 33.3428 3.14999V35.13Z" fill="black"/>
<path d="M68.9665 35.13C68.9665 36.0833 68.1883 36.8633 67.2372 36.8633H63.9083C62.9572 36.8633 61.7467 36.2133 61.2279 35.4333L46.7017 14.3733C46.1829 13.5933 45.7074 13.7233 45.7074 14.6767V35.13C45.7074 36.0833 44.9292 36.8633 43.9781 36.8633H40.6492C39.698 36.8633 38.9199 36.0833 38.9199 35.13V3.14999C38.9199 2.19666 39.698 1.41666 40.6492 1.41666H43.9781C44.9292 1.41666 46.1397 2.06666 46.6585 2.84666L61.1414 23.82C61.6602 24.6 62.1358 24.47 62.1358 23.5167V3.14999C62.1358 2.19666 62.9139 1.41666 63.8651 1.41666H67.194C68.1451 1.41666 68.9233 2.19666 68.9233 3.14999V35.13H68.9665Z" fill="black"/>
<path d="M100.094 21.35C100.094 22.3033 100.008 23.82 99.8779 24.7733C99.8779 24.7733 99.0133 31.36 96.7652 33.83C94.5603 36.3433 91.3611 37.5567 87.2108 37.5567C83.1037 37.5567 79.9477 36.2567 77.6996 33.7C75.4515 31.1433 74.5436 24.73 74.5436 24.73C74.4139 23.7767 74.3275 22.26 74.3275 21.3067V3.10666C74.3275 2.15332 75.1056 1.37332 76.0568 1.37332H79.7315C80.6826 1.37332 81.4608 2.15332 81.4608 3.10666V22.52C81.4608 23.4733 81.5473 24.99 81.677 25.9433C81.677 25.9433 81.9796 28.24 82.9307 29.41C83.9251 30.58 85.3518 31.1867 87.2108 31.1867C89.1562 31.1867 90.6261 30.6233 91.5773 29.4533C92.5284 28.3267 92.7878 25.9433 92.7878 25.9433C92.9175 24.99 93.0039 23.4733 93.0039 22.52V3.14999C93.0039 2.19665 93.7821 1.41665 94.7332 1.41665H98.408C99.3591 1.41665 100.137 2.19665 100.137 3.14999V21.35H100.094Z" fill="black"/>
<path d="M125.645 27.07C125.645 30.45 124.65 33.05 122.662 34.87C120.673 36.69 117.82 37.6 114.101 37.6C111.508 37.6 109.259 37.1233 107.357 36.17C105.455 35.2167 104.244 33.6133 104.244 33.6133C103.682 32.8333 103.726 31.6633 104.374 30.97L106.449 28.63C107.098 27.9367 108.006 28.0233 108.481 28.8033C108.481 28.8033 108.914 29.54 110.167 30.32C111.378 31.1 112.718 31.49 114.145 31.49C115.615 31.49 116.695 31.1433 117.43 30.4933C118.165 29.8 118.554 28.8467 118.554 27.5467C118.554 26.42 118.036 25.38 117.041 24.47C116.047 23.56 114.274 22.39 111.724 21.0033C108.957 19.4433 106.968 17.8833 105.844 16.28C104.72 14.6767 104.115 12.8133 104.115 10.6467C104.115 7.61333 105.109 5.18666 107.098 3.40999C109.086 1.63333 111.767 0.723328 115.182 0.723328C117.257 0.723328 119.073 1.11333 120.63 1.89333C122.186 2.67333 123.44 4.05999 123.44 4.05999C124.045 4.75333 124.045 5.92333 123.397 6.61666L121.494 8.69666C120.846 9.39 119.895 9.34666 119.333 8.56666C119.333 8.56666 119.16 8.30666 118.165 7.74333C117.171 7.13666 116.133 6.83333 115.096 6.83333C113.885 6.83333 112.891 7.13666 112.199 7.78666C111.464 8.43666 111.118 9.21666 111.118 10.1267C111.118 11.99 114.75 14.6333 114.75 14.6333C115.528 15.1967 116.393 15.76 116.695 15.9333C116.998 16.1067 118.209 16.8433 119.03 17.32C119.03 17.32 122.618 19.66 123.829 21.2633C125.039 22.8667 125.645 24.8167 125.645 27.07Z" fill="black"/>
</svg>
