<svg width="103" height="10" viewBox="0 0 103 10" fill="none" xmlns="http://www.w3.org/2000/svg">
<path d="M5.51001 6.94254C5.51001 7.6776 5.24341 8.25079 4.71021 8.66212C4.177 9.07345 3.45337 9.27911 2.53931 9.27911C1.54907 9.27911 0.787354 9.15152 0.25415 8.89635V7.95943C0.596924 8.10416 0.970166 8.21842 1.37388 8.30221C1.77759 8.386 2.17749 8.42789 2.57358 8.42789C3.22104 8.42789 3.70854 8.30602 4.03608 8.06226C4.36362 7.81471 4.52739 7.47193 4.52739 7.03395C4.52739 6.74449 4.46836 6.50836 4.35029 6.32555C4.23604 6.13893 4.0418 5.96754 3.76758 5.81139C3.49717 5.65523 3.08394 5.47814 2.52788 5.28009C1.75093 5.00206 1.19487 4.67262 0.859717 4.29176C0.528369 3.9109 0.362695 3.41388 0.362695 2.80069C0.362695 2.15704 0.604541 1.64479 1.08823 1.26393C1.57192 0.883069 2.21177 0.692639 3.00776 0.692639C3.83804 0.692639 4.60166 0.844983 5.29863 1.14967L4.99585 1.99518C4.30649 1.70572 3.63618 1.561 2.98491 1.561C2.47075 1.561 2.06895 1.67145 1.77949 1.89235C1.49004 2.11324 1.34531 2.41984 1.34531 2.81212C1.34531 3.10157 1.39863 3.33961 1.50527 3.52623C1.61191 3.70904 1.79092 3.87853 2.04229 4.03468C2.29746 4.18702 2.68594 4.3565 3.20771 4.54313C4.08369 4.85543 4.68545 5.19059 5.01299 5.54859C5.34434 5.9066 5.51001 6.37125 5.51001 6.94254Z" fill="black"/>
<path d="M15.591 9.16485H14.4484L11.4034 5.11441L10.5294 5.89137V9.16485H9.55816V0.81261H10.5294V4.95445L14.317 0.81261H15.4653L12.1061 4.44029L15.591 9.16485Z" fill="black"/>
<path d="M24.3351 9.16485L23.2954 6.50836H19.9476L18.9193 9.16485H17.9367L21.2387 0.778332H22.0557L25.3406 9.16485H24.3351ZM22.9926 5.63429L22.0214 3.04635C21.8957 2.71881 21.7662 2.317 21.6329 1.84093C21.5491 2.20655 21.4292 2.60836 21.273 3.04635L20.2904 5.63429H22.9926Z" fill="black"/>
<path d="M31.3997 9.16485H30.4285V1.67526H27.7834V0.81261H34.0448V1.67526H31.3997V9.16485Z" fill="black"/>
<path d="M42.3033 9.16485H37.6473V0.81261H42.3033V1.67526H38.6185V4.36603H42.0805V5.22296H38.6185V8.29649H42.3033V9.16485Z" fill="black"/>
<path d="M46.5 0.81261H48.8594C49.9677 0.81261 50.7694 0.978284 51.2645 1.30963C51.7597 1.64098 52.0072 2.16466 52.0072 2.88068C52.0072 3.37579 51.8682 3.78522 51.5902 4.10895C51.316 4.42887 50.9142 4.63644 50.3848 4.73165V4.78878C51.653 5.00587 52.2872 5.67237 52.2872 6.78829C52.2872 7.53478 52.0339 8.11749 51.5273 8.53643C51.0246 8.95538 50.32 9.16485 49.4136 9.16485H46.5V0.81261ZM47.4712 4.38888H49.0708C49.7563 4.38888 50.2496 4.28224 50.5504 4.06896C50.8513 3.85187 51.0018 3.48815 51.0018 2.97779C51.0018 2.50934 50.8342 2.17228 50.499 1.96661C50.1639 1.75714 49.6307 1.6524 48.8994 1.6524H47.4712V4.38888ZM47.4712 5.21153V8.33648H49.2136C49.8877 8.33648 50.3943 8.20699 50.7332 7.94801C51.076 7.68521 51.2474 7.27579 51.2474 6.71974C51.2474 6.20177 51.0722 5.82091 50.7218 5.57716C50.3752 5.33341 49.8458 5.21153 49.1336 5.21153H47.4712Z" fill="black"/>
<path d="M63.6764 4.97731C63.6764 6.31412 63.3374 7.36529 62.6595 8.13082C61.9854 8.89635 61.0465 9.27911 59.843 9.27911C58.6129 9.27911 57.6626 8.90396 56.9923 8.15367C56.3258 7.39957 55.9925 6.33697 55.9925 4.96588C55.9925 3.60621 56.3277 2.55314 56.998 1.80665C57.6683 1.05636 58.6205 0.681213 59.8545 0.681213C61.0542 0.681213 61.9911 1.06207 62.6652 1.82379C63.3393 2.58551 63.6764 3.63668 63.6764 4.97731ZM57.0209 4.97731C57.0209 6.10846 57.2608 6.96729 57.7407 7.55382C58.2244 8.13653 58.9252 8.42789 59.843 8.42789C60.7685 8.42789 61.4674 8.13653 61.9397 7.55382C62.4119 6.9711 62.6481 6.11227 62.6481 4.97731C62.6481 3.85377 62.4119 3.00255 61.9397 2.42364C61.4712 1.84093 60.7761 1.54957 59.8545 1.54957C58.929 1.54957 58.2244 1.84283 57.7407 2.42936C57.2608 3.01207 57.0209 3.86139 57.0209 4.97731Z" fill="black"/>
<path d="M73.1346 9.16485L72.0949 6.50836H68.7471L67.7188 9.16485H66.7362L70.0382 0.778332H70.8552L74.1401 9.16485H73.1346ZM71.7921 5.63429L70.8209 3.04635C70.6952 2.71881 70.5657 2.317 70.4324 1.84093C70.3486 2.20655 70.2287 2.60836 70.0725 3.04635L69.0899 5.63429H71.7921Z" fill="black"/>
<path d="M78.5996 5.69142V9.16485H77.6284V0.81261H79.9193C80.9438 0.81261 81.6998 1.00875 82.1873 1.40104C82.6786 1.79332 82.9242 2.38365 82.9242 3.17203C82.9242 4.27652 82.3644 5.02301 81.2447 5.41148L83.5127 9.16485H82.3644L80.342 5.69142H78.5996ZM78.5996 4.85733H79.9307C80.6162 4.85733 81.119 4.72213 81.4389 4.45172C81.7588 4.1775 81.9188 3.76808 81.9188 3.22345C81.9188 2.6712 81.755 2.2732 81.4275 2.02946C81.1037 1.78571 80.582 1.66383 79.8621 1.66383H78.5996V4.85733Z" fill="black"/>
<path d="M93.8679 4.90875C93.8679 6.28746 93.4927 7.34244 92.7424 8.07369C91.9959 8.80113 90.92 9.16485 89.5146 9.16485H87.2009V0.81261H89.7603C91.059 0.81261 92.0683 1.17252 92.7881 1.89235C93.5079 2.61217 93.8679 3.61764 93.8679 4.90875ZM92.8395 4.94303C92.8395 3.85377 92.5653 3.03302 92.0169 2.48077C91.4723 1.92853 90.661 1.6524 89.5832 1.6524H88.1721V8.32506H89.3547C90.5125 8.32506 91.3827 8.04132 91.9655 7.47384C92.5482 6.90255 92.8395 6.05895 92.8395 4.94303Z" fill="black"/>
<path d="M102.789 6.94254C102.789 7.6776 102.523 8.25079 101.989 8.66212C101.456 9.07345 100.732 9.27911 99.8184 9.27911C98.8282 9.27911 98.0665 9.15152 97.5332 8.89635V7.95943C97.876 8.10416 98.2493 8.21842 98.653 8.30221C99.0567 8.386 99.4566 8.42789 99.8527 8.42789C100.5 8.42789 100.988 8.30602 101.315 8.06226C101.643 7.81471 101.806 7.47193 101.806 7.03395C101.806 6.74449 101.747 6.50836 101.629 6.32555C101.515 6.13893 101.321 5.96754 101.047 5.81139C100.776 5.65523 100.363 5.47814 99.807 5.28009C99.03 5.00206 98.474 4.67262 98.1388 4.29176C97.8075 3.9109 97.6418 3.41388 97.6418 2.80069C97.6418 2.15704 97.8836 1.64479 98.3673 1.26393C98.851 0.883069 99.4909 0.692639 100.287 0.692639C101.117 0.692639 101.881 0.844983 102.578 1.14967L102.275 1.99518C101.586 1.70572 100.915 1.561 100.264 1.561C99.7498 1.561 99.348 1.67145 99.0586 1.89235C98.7691 2.11324 98.6244 2.41984 98.6244 2.81212C98.6244 3.10157 98.6777 3.33961 98.7844 3.52623C98.891 3.70904 99.07 3.87853 99.3214 4.03468C99.5766 4.18702 99.965 4.3565 100.487 4.54313C101.363 4.85543 101.965 5.19059 102.292 5.54859C102.623 5.9066 102.789 6.37125 102.789 6.94254Z" fill="black"/>
</svg>
