<svg width="48" height="34" viewBox="0 0 48 34" fill="none" xmlns="http://www.w3.org/2000/svg">
<path d="M47.3847 7.11999V26.9667C47.3847 27.66 46.8227 28.2233 46.1309 28.2233C45.4392 28.2233 44.8772 27.66 44.8772 26.9667V7.11999C44.8772 4.77999 42.975 2.87332 40.6404 2.87332C38.3058 2.87332 36.4036 4.77999 36.4036 7.11999V26.9667C36.4036 30.6933 33.3773 33.7267 29.6593 33.7267C25.9413 33.7267 22.915 30.6933 22.915 26.9667V7.11999C22.915 4.77999 21.0128 2.87332 18.6782 2.87332C16.3436 2.87332 14.4414 4.77999 14.4414 7.11999V26.9667C14.4414 30.6933 11.4151 33.7267 7.69711 33.7267C3.9791 33.7267 0.95282 30.6933 0.95282 26.9667V7.11999C0.95282 6.42665 1.51484 5.86332 2.20657 5.86332C2.89829 5.86332 3.46031 6.42665 3.46031 7.11999V26.9667C3.46031 29.3067 5.36255 31.2133 7.69711 31.2133C10.0317 31.2133 11.9339 29.3067 11.9339 26.9667V7.11999C11.9339 3.39332 14.9602 0.359985 18.6782 0.359985C22.3962 0.359985 25.4225 3.39332 25.4225 7.11999V26.9667C25.4225 29.3067 27.3247 31.2133 29.6593 31.2133C31.9939 31.2133 33.8961 29.3067 33.8961 26.9667V7.11999C33.8961 3.39332 36.9224 0.359985 40.6404 0.359985C44.3584 0.359985 47.3847 3.39332 47.3847 7.11999Z" fill="black"/>
</svg>
